<svg xmlns="http://www.w3.org/2000/svg" width="749" height="319" viewBox="0 0 749 319" role="img" aria-label="Daily token usage">
<style>
  .bg { fill: #ffffff; stroke: #d0d7de; }
  .strong { fill: #1f2328; font: 600 14px -apple-system, "Segoe UI", Helvetica, Arial, sans-serif; }
  .text { fill: #1f2328; font: 400 12px -apple-system, "Segoe UI", Helvetica, Arial, sans-serif; }
  .muted { fill: #57606a; font: 400 12px -apple-system, "Segoe UI", Helvetica, Arial, sans-serif; }
  .small { font-size: 10px; } .mid { font-size: 13px; }
  .lv0 { fill: #ebedf0; } .lv1 { fill: #9be9a8; } .lv2 { fill: #40c463; }
  .lv3 { fill: #30a14e; } .lv4 { fill: #216e39; }
  .track { stroke: #ebedf0; }
  @media (prefers-color-scheme: dark) {
    .bg { fill: #0d1117; stroke: #30363d; }
    .strong { fill: #e6edf3; } .text { fill: #e6edf3; } .muted { fill: #8b949e; }
    .lv0 { fill: #161b22; } .lv1 { fill: #0e4429; } .lv2 { fill: #006d32; }
    .lv3 { fill: #26a641; } .lv4 { fill: #39d353; }
    .track { stroke: #161b22; }
  }
</style>
<rect class="bg" x="0.5" y="0.5" width="748" height="318" rx="6"/>
<text x="16" y="28" class="strong">⚡ Daily Token Usage</text>
<text x="733" y="28" text-anchor="end" class="muted small">updated 2026-10-07 22:27</text>
<text x="57" y="46" class="muted small">Oct</text><text x="109" y="46" class="muted small">Nov</text><text x="174" y="46" class="muted small">Dec</text><text x="226" y="46" class="muted small">Jan</text><text x="278" y="46" class="muted small">Feb</text><text x="330" y="46" class="muted small">Mar</text><text x="395" y="46" class="muted small">Apr</text><text x="447" y="46" class="muted small">May</text><text x="512" y="46" class="muted small">Jun</text><text x="564" y="46" class="muted small">Jul</text><text x="616" y="46" class="muted small">Aug</text><text x="681" y="46" class="muted small">Sep</text>
<text x="16" y="78" class="muted small">Mon</text><text x="16" y="104" class="muted small">Wed</text><text x="16" y="130" class="muted small">Fri</text>
<rect x="44" y="56" width="10" height="10" rx="2" class="lv0"><title>2025-09-28: no usage</title></rect><rect x="44" y="69" width="10" height="10" rx="2" class="lv0"><title>2025-09-29: no usage</title></rect><rect x="44" y="82" width="10" height="10" rx="2" class="lv0"><title>2025-09-30: no usage</title></rect><rect x="44" y="95" width="10" height="10" rx="2" class="lv0"><title>2025-10-01: no usage</title></rect><rect x="44" y="108" width="10" height="10" rx="2" class="lv0"><title>2025-10-02: no usage</title></rect><rect x="44" y="121" width="10" height="10" rx="2" class="lv0"><title>2025-10-03: no usage</title></rect><rect x="44" y="134" width="10" height="10" rx="2" class="lv0"><title>2025-10-04: no usage</title></rect><rect x="57" y="56" width="10" height="10" rx="2" class="lv0"><title>2025-10-05: no usage</title></rect><rect x="57" y="69" width="10" height="10" rx="2" class="lv0"><title>2025-10-06: no usage</title></rect><rect x="57" y="82" width="10" height="10" rx="2" class="lv0"><title>2025-10-07: no usage</title></rect><rect x="57" y="95" width="10" height="10" rx="2" class="lv0"><title>2025-10-08: no usage</title></rect><rect x="57" y="108" width="10" height="10" rx="2" class="lv0"><title>2025-10-09: no usage</title></rect><rect x="57" y="121" width="10" height="10" rx="2" class="lv0"><title>2025-10-10: no usage</title></rect><rect x="57" y="134" width="10" height="10" rx="2" class="lv0"><title>2025-10-11: no usage</title></rect><rect x="70" y="56" width="10" height="10" rx="2" class="lv0"><title>2025-10-12: no usage</title></rect><rect x="70" y="69" width="10" height="10" rx="2" class="lv0"><title>2025-10-13: no usage</title></rect><rect x="70" y="82" width="10" height="10" rx="2" class="lv0"><title>2025-10-14: no usage</title></rect><rect x="70" y="95" width="10" height="10" rx="2" class="lv0"><title>2025-10-15: no usage</title></rect><rect x="70" y="108" width="10" height="10" rx="2" class="lv0"><title>2025-10-16: no usage</title></rect><rect x="70" y="121" width="10" height="10" rx="2" class="lv0"><title>2025-10-17: no usage</title></rect><rect x="70" y="134" width="10" height="10" rx="2" class="lv0"><title>2025-10-18: no usage</title></rect><rect x="83" y="56" width="10" height="10" rx="2" class="lv0"><title>2025-10-19: no usage</title></rect><rect x="83" y="69" width="10" height="10" rx="2" class="lv0"><title>2025-10-20: no usage</title></rect><rect x="83" y="82" width="10" height="10" rx="2" class="lv0"><title>2025-10-21: no usage</title></rect><rect x="83" y="95" width="10" height="10" rx="2" class="lv0"><title>2025-10-22: no usage</title></rect><rect x="83" y="108" width="10" height="10" rx="2" class="lv0"><title>2025-10-23: no usage</title></rect><rect x="83" y="121" width="10" height="10" rx="2" class="lv0"><title>2025-10-24: no usage</title></rect><rect x="83" y="134" width="10" height="10" rx="2" class="lv0"><title>2025-10-25: no usage</title></rect><rect x="96" y="56" width="10" height="10" rx="2" class="lv0"><title>2025-10-26: no usage</title></rect><rect x="96" y="69" width="10" height="10" rx="2" class="lv0"><title>2025-10-27: no usage</title></rect><rect x="96" y="82" width="10" height="10" rx="2" class="lv0"><title>2025-10-28: no usage</title></rect><rect x="96" y="95" width="10" height="10" rx="2" class="lv0"><title>2025-10-29: no usage</title></rect><rect x="96" y="108" width="10" height="10" rx="2" class="lv0"><title>2025-10-30: no usage</title></rect><rect x="96" y="121" width="10" height="10" rx="2" class="lv0"><title>2025-10-31: no usage</title></rect><rect x="96" y="134" width="10" height="10" rx="2" class="lv0"><title>2025-11-01: no usage</title></rect><rect x="109" y="56" width="10" height="10" rx="2" class="lv0"><title>2025-11-02: no usage</title></rect><rect x="109" y="69" width="10" height="10" rx="2" class="lv0"><title>2025-11-03: no usage</title></rect><rect x="109" y="82" width="10" height="10" rx="2" class="lv0"><title>2025-11-04: no usage</title></rect><rect x="109" y="95" width="10" height="10" rx="2" class="lv0"><title>2025-11-05: no usage</title></rect><rect x="109" y="108" width="10" height="10" rx="2" class="lv0"><title>2025-11-06: no usage</title></rect><rect x="109" y="121" width="10" height="10" rx="2" class="lv0"><title>2025-11-07: no usage</title></rect><rect x="109" y="134" width="10" height="10" rx="2" class="lv0"><title>2025-11-08: no usage</title></rect><rect x="122" y="56" width="10" height="10" rx="2" class="lv0"><title>2025-11-09: no usage</title></rect><rect x="122" y="69" width="10" height="10" rx="2" class="lv0"><title>2025-11-10: no usage</title></rect><rect x="122" y="82" width="10" height="10" rx="2" class="lv0"><title>2025-11-11: no usage</title></rect><rect x="122" y="95" width="10" height="10" rx="2" class="lv0"><title>2025-11-12: no usage</title></rect><rect x="122" y="108" width="10" height="10" rx="2" class="lv0"><title>2025-11-13: no usage</title></rect><rect x="122" y="121" width="10" height="10" rx="2" class="lv0"><title>2025-11-14: no usage</title></rect><rect x="122" y="134" width="10" height="10" rx="2" class="lv0"><title>2025-11-15: no usage</title></rect><rect x="135" y="56" width="10" height="10" rx="2" class="lv0"><title>2025-11-16: no usage</title></rect><rect x="135" y="69" width="10" height="10" rx="2" class="lv0"><title>2025-11-17: no usage</title></rect><rect x="135" y="82" width="10" height="10" rx="2" class="lv0"><title>2025-11-18: no usage</title></rect><rect x="135" y="95" width="10" height="10" rx="2" class="lv0"><title>2025-11-19: no usage</title></rect><rect x="135" y="108" width="10" height="10" rx="2" class="lv0"><title>2025-11-20: no usage</title></rect><rect x="135" y="121" width="10" height="10" rx="2" class="lv0"><title>2025-11-21: no usage</title></rect><rect x="135" y="134" width="10" height="10" rx="2" class="lv0"><title>2025-11-22: no usage</title></rect><rect x="148" y="56" width="10" height="10" rx="2" class="lv0"><title>2025-11-23: no usage</title></rect><rect x="148" y="69" width="10" height="10" rx="2" class="lv0"><title>2025-11-24: no usage</title></rect><rect x="148" y="82" width="10" height="10" rx="2" class="lv0"><title>2025-11-25: no usage</title></rect><rect x="148" y="95" width="10" height="10" rx="2" class="lv0"><title>2025-11-26: no usage</title></rect><rect x="148" y="108" width="10" height="10" rx="2" class="lv0"><title>2025-11-27: no usage</title></rect><rect x="148" y="121" width="10" height="10" rx="2" class="lv0"><title>2025-11-28: no usage</title></rect><rect x="148" y="134" width="10" height="10" rx="2" class="lv0"><title>2025-11-29: no usage</title></rect><rect x="161" y="56" width="10" height="10" rx="2" class="lv0"><title>2025-11-30: no usage</title></rect><rect x="161" y="69" width="10" height="10" rx="2" class="lv0"><title>2025-12-01: no usage</title></rect><rect x="161" y="82" width="10" height="10" rx="2" class="lv0"><title>2025-12-02: no usage</title></rect><rect x="161" y="95" width="10" height="10" rx="2" class="lv0"><title>2025-12-03: no usage</title></rect><rect x="161" y="108" width="10" height="10" rx="2" class="lv0"><title>2025-12-04: no usage</title></rect><rect x="161" y="121" width="10" height="10" rx="2" class="lv0"><title>2025-12-05: no usage</title></rect><rect x="161" y="134" width="10" height="10" rx="2" class="lv0"><title>2025-12-06: no usage</title></rect><rect x="174" y="56" width="10" height="10" rx="2" class="lv0"><title>2025-12-07: no usage</title></rect><rect x="174" y="69" width="10" height="10" rx="2" class="lv0"><title>2025-12-08: no usage</title></rect><rect x="174" y="82" width="10" height="10" rx="2" class="lv0"><title>2025-12-09: no usage</title></rect><rect x="174" y="95" width="10" height="10" rx="2" class="lv0"><title>2025-12-10: no usage</title></rect><rect x="174" y="108" width="10" height="10" rx="2" class="lv0"><title>2025-12-11: no usage</title></rect><rect x="174" y="121" width="10" height="10" rx="2" class="lv0"><title>2025-12-12: no usage</title></rect><rect x="174" y="134" width="10" height="10" rx="2" class="lv0"><title>2025-12-13: no usage</title></rect><rect x="187" y="56" width="10" height="10" rx="2" class="lv0"><title>2025-12-14: no usage</title></rect><rect x="187" y="69" width="10" height="10" rx="2" class="lv0"><title>2025-12-15: no usage</title></rect><rect x="187" y="82" width="10" height="10" rx="2" class="lv0"><title>2025-12-16: no usage</title></rect><rect x="187" y="95" width="10" height="10" rx="2" class="lv0"><title>2025-12-17: no usage</title></rect><rect x="187" y="108" width="10" height="10" rx="2" class="lv0"><title>2025-12-18: no usage</title></rect><rect x="187" y="121" width="10" height="10" rx="2" class="lv0"><title>2025-12-19: no usage</title></rect><rect x="187" y="134" width="10" height="10" rx="2" class="lv0"><title>2025-12-20: no usage</title></rect><rect x="200" y="56" width="10" height="10" rx="2" class="lv0"><title>2025-12-21: no usage</title></rect><rect x="200" y="69" width="10" height="10" rx="2" class="lv0"><title>2025-12-22: no usage</title></rect><rect x="200" y="82" width="10" height="10" rx="2" class="lv0"><title>2025-12-23: no usage</title></rect><rect x="200" y="95" width="10" height="10" rx="2" class="lv0"><title>2025-12-24: no usage</title></rect><rect x="200" y="108" width="10" height="10" rx="2" class="lv0"><title>2025-12-25: no usage</title></rect><rect x="200" y="121" width="10" height="10" rx="2" class="lv0"><title>2025-12-26: no usage</title></rect><rect x="200" y="134" width="10" height="10" rx="2" class="lv0"><title>2025-12-27: no usage</title></rect><rect x="213" y="56" width="10" height="10" rx="2" class="lv0"><title>2025-12-28: no usage</title></rect><rect x="213" y="69" width="10" height="10" rx="2" class="lv0"><title>2025-12-29: no usage</title></rect><rect x="213" y="82" width="10" height="10" rx="2" class="lv0"><title>2025-12-30: no usage</title></rect><rect x="213" y="95" width="10" height="10" rx="2" class="lv0"><title>2025-12-31: no usage</title></rect><rect x="213" y="108" width="10" height="10" rx="2" class="lv0"><title>2026-01-01: no usage</title></rect><rect x="213" y="121" width="10" height="10" rx="2" class="lv0"><title>2026-01-02: no usage</title></rect><rect x="213" y="134" width="10" height="10" rx="2" class="lv0"><title>2026-01-03: no usage</title></rect><rect x="226" y="56" width="10" height="10" rx="2" class="lv0"><title>2026-01-04: no usage</title></rect><rect x="226" y="69" width="10" height="10" rx="2" class="lv0"><title>2026-01-05: no usage</title></rect><rect x="226" y="82" width="10" height="10" rx="2" class="lv0"><title>2026-01-06: no usage</title></rect><rect x="226" y="95" width="10" height="10" rx="2" class="lv0"><title>2026-01-07: no usage</title></rect><rect x="226" y="108" width="10" height="10" rx="2" class="lv0"><title>2026-01-08: no usage</title></rect><rect x="226" y="121" width="10" height="10" rx="2" class="lv0"><title>2026-01-09: no usage</title></rect><rect x="226" y="134" width="10" height="10" rx="2" class="lv0"><title>2026-01-10: no usage</title></rect><rect x="239" y="56" width="10" height="10" rx="2" class="lv0"><title>2026-01-11: no usage</title></rect><rect x="239" y="69" width="10" height="10" rx="2" class="lv0"><title>2026-01-12: no usage</title></rect><rect x="239" y="82" width="10" height="10" rx="2" class="lv0"><title>2026-01-13: no usage</title></rect><rect x="239" y="95" width="10" height="10" rx="2" class="lv0"><title>2026-01-14: no usage</title></rect><rect x="239" y="108" width="10" height="10" rx="2" class="lv0"><title>2026-01-15: no usage</title></rect><rect x="239" y="121" width="10" height="10" rx="2" class="lv0"><title>2026-01-16: no usage</title></rect><rect x="239" y="134" width="10" height="10" rx="2" class="lv0"><title>2026-01-17: no usage</title></rect><rect x="252" y="56" width="10" height="10" rx="2" class="lv0"><title>2026-01-18: no usage</title></rect><rect x="252" y="69" width="10" height="10" rx="2" class="lv0"><title>2026-01-19: no usage</title></rect><rect x="252" y="82" width="10" height="10" rx="2" class="lv0"><title>2026-01-20: no usage</title></rect><rect x="252" y="95" width="10" height="10" rx="2" class="lv0"><title>2026-01-21: no usage</title></rect><rect x="252" y="108" width="10" height="10" rx="2" class="lv0"><title>2026-01-22: no usage</title></rect><rect x="252" y="121" width="10" height="10" rx="2" class="lv0"><title>2026-01-23: no usage</title></rect><rect x="252" y="134" width="10" height="10" rx="2" class="lv0"><title>2026-01-24: no usage</title></rect><rect x="265" y="56" width="10" height="10" rx="2" class="lv0"><title>2026-01-25: no usage</title></rect><rect x="265" y="69" width="10" height="10" rx="2" class="lv0"><title>2026-01-26: no usage</title></rect><rect x="265" y="82" width="10" height="10" rx="2" class="lv0"><title>2026-01-27: no usage</title></rect><rect x="265" y="95" width="10" height="10" rx="2" class="lv0"><title>2026-01-28: no usage</title></rect><rect x="265" y="108" width="10" height="10" rx="2" class="lv0"><title>2026-01-29: no usage</title></rect><rect x="265" y="121" width="10" height="10" rx="2" class="lv0"><title>2026-01-30: no usage</title></rect><rect x="265" y="134" width="10" height="10" rx="2" class="lv0"><title>2026-01-31: no usage</title></rect><rect x="278" y="56" width="10" height="10" rx="2" class="lv0"><title>2026-02-01: no usage</title></rect><rect x="278" y="69" width="10" height="10" rx="2" class="lv0"><title>2026-02-02: no usage</title></rect><rect x="278" y="82" width="10" height="10" rx="2" class="lv0"><title>2026-02-03: no usage</title></rect><rect x="278" y="95" width="10" height="10" rx="2" class="lv0"><title>2026-02-04: no usage</title></rect><rect x="278" y="108" width="10" height="10" rx="2" class="lv0"><title>2026-02-05: no usage</title></rect><rect x="278" y="121" width="10" height="10" rx="2" class="lv0"><title>2026-02-06: no usage</title></rect><rect x="278" y="134" width="10" height="10" rx="2" class="lv0"><title>2026-02-07: no usage</title></rect><rect x="291" y="56" width="10" height="10" rx="2" class="lv0"><title>2026-02-08: no usage</title></rect><rect x="291" y="69" width="10" height="10" rx="2" class="lv0"><title>2026-02-09: no usage</title></rect><rect x="291" y="82" width="10" height="10" rx="2" class="lv0"><title>2026-02-10: no usage</title></rect><rect x="291" y="95" width="10" height="10" rx="2" class="lv0"><title>2026-02-11: no usage</title></rect><rect x="291" y="108" width="10" height="10" rx="2" class="lv0"><title>2026-02-12: no usage</title></rect><rect x="291" y="121" width="10" height="10" rx="2" class="lv0"><title>2026-02-13: no usage</title></rect><rect x="291" y="134" width="10" height="10" rx="2" class="lv0"><title>2026-02-14: no usage</title></rect><rect x="304" y="56" width="10" height="10" rx="2" class="lv0"><title>2026-02-15: no usage</title></rect><rect x="304" y="69" width="10" height="10" rx="2" class="lv0"><title>2026-02-16: no usage</title></rect><rect x="304" y="82" width="10" height="10" rx="2" class="lv0"><title>2026-02-17: no usage</title></rect><rect x="304" y="95" width="10" height="10" rx="2" class="lv0"><title>2026-02-18: no usage</title></rect><rect x="304" y="108" width="10" height="10" rx="2" class="lv0"><title>2026-02-19: no usage</title></rect><rect x="304" y="121" width="10" height="10" rx="2" class="lv0"><title>2026-02-20: no usage</title></rect><rect x="304" y="134" width="10" height="10" rx="2" class="lv0"><title>2026-02-21: no usage</title></rect><rect x="317" y="56" width="10" height="10" rx="2" class="lv0"><title>2026-02-22: no usage</title></rect><rect x="317" y="69" width="10" height="10" rx="2" class="lv0"><title>2026-02-23: no usage</title></rect><rect x="317" y="82" width="10" height="10" rx="2" class="lv0"><title>2026-02-24: no usage</title></rect><rect x="317" y="95" width="10" height="10" rx="2" class="lv0"><title>2026-02-25: no usage</title></rect><rect x="317" y="108" width="10" height="10" rx="2" class="lv0"><title>2026-02-26: no usage</title></rect><rect x="317" y="121" width="10" height="10" rx="2" class="lv0"><title>2026-02-27: no usage</title></rect><rect x="317" y="134" width="10" height="10" rx="2" class="lv0"><title>2026-02-28: no usage</title></rect><rect x="330" y="56" width="10" height="10" rx="2" class="lv0"><title>2026-03-01: no usage</title></rect><rect x="330" y="69" width="10" height="10" rx="2" class="lv0"><title>2026-03-02: no usage</title></rect><rect x="330" y="82" width="10" height="10" rx="2" class="lv0"><title>2026-03-03: no usage</title></rect><rect x="330" y="95" width="10" height="10" rx="2" class="lv0"><title>2026-03-04: no usage</title></rect><rect x="330" y="108" width="10" height="10" rx="2" class="lv0"><title>2026-03-05: no usage</title></rect><rect x="330" y="121" width="10" height="10" rx="2" class="lv0"><title>2026-03-06: no usage</title></rect><rect x="330" y="134" width="10" height="10" rx="2" class="lv0"><title>2026-03-07: no usage</title></rect><rect x="343" y="56" width="10" height="10" rx="2" class="lv0"><title>2026-03-08: no usage</title></rect><rect x="343" y="69" width="10" height="10" rx="2" class="lv0"><title>2026-03-09: no usage</title></rect><rect x="343" y="82" width="10" height="10" rx="2" class="lv0"><title>2026-03-10: no usage</title></rect><rect x="343" y="95" width="10" height="10" rx="2" class="lv0"><title>2026-03-11: no usage</title></rect><rect x="343" y="108" width="10" height="10" rx="2" class="lv0"><title>2026-03-12: no usage</title></rect><rect x="343" y="121" width="10" height="10" rx="2" class="lv0"><title>2026-03-13: no usage</title></rect><rect x="343" y="134" width="10" height="10" rx="2" class="lv0"><title>2026-03-14: no usage</title></rect><rect x="356" y="56" width="10" height="10" rx="2" class="lv0"><title>2026-03-15: no usage</title></rect><rect x="356" y="69" width="10" height="10" rx="2" class="lv0"><title>2026-03-16: no usage</title></rect><rect x="356" y="82" width="10" height="10" rx="2" class="lv0"><title>2026-03-17: no usage</title></rect><rect x="356" y="95" width="10" height="10" rx="2" class="lv0"><title>2026-03-18: no usage</title></rect><rect x="356" y="108" width="10" height="10" rx="2" class="lv0"><title>2026-03-19: no usage</title></rect><rect x="356" y="121" width="10" height="10" rx="2" class="lv0"><title>2026-03-20: no usage</title></rect><rect x="356" y="134" width="10" height="10" rx="2" class="lv0"><title>2026-03-21: no usage</title></rect><rect x="369" y="56" width="10" height="10" rx="2" class="lv0"><title>2026-03-22: no usage</title></rect><rect x="369" y="69" width="10" height="10" rx="2" class="lv0"><title>2026-03-23: no usage</title></rect><rect x="369" y="82" width="10" height="10" rx="2" class="lv0"><title>2026-03-24: no usage</title></rect><rect x="369" y="95" width="10" height="10" rx="2" class="lv0"><title>2026-03-25: no usage</title></rect><rect x="369" y="108" width="10" height="10" rx="2" class="lv0"><title>2026-03-26: no usage</title></rect><rect x="369" y="121" width="10" height="10" rx="2" class="lv0"><title>2026-03-27: no usage</title></rect><rect x="369" y="134" width="10" height="10" rx="2" class="lv0"><title>2026-03-28: no usage</title></rect><rect x="382" y="56" width="10" height="10" rx="2" class="lv0"><title>2026-03-29: no usage</title></rect><rect x="382" y="69" width="10" height="10" rx="2" class="lv0"><title>2026-03-30: no usage</title></rect><rect x="382" y="82" width="10" height="10" rx="2" class="lv0"><title>2026-03-31: no usage</title></rect><rect x="382" y="95" width="10" height="10" rx="2" class="lv0"><title>2026-04-01: no usage</title></rect><rect x="382" y="108" width="10" height="10" rx="2" class="lv0"><title>2026-04-02: no usage</title></rect><rect x="382" y="121" width="10" height="10" rx="2" class="lv0"><title>2026-04-03: no usage</title></rect><rect x="382" y="134" width="10" height="10" rx="2" class="lv0"><title>2026-04-04: no usage</title></rect><rect x="395" y="56" width="10" height="10" rx="2" class="lv0"><title>2026-04-05: no usage</title></rect><rect x="395" y="69" width="10" height="10" rx="2" class="lv0"><title>2026-04-06: no usage</title></rect><rect x="395" y="82" width="10" height="10" rx="2" class="lv0"><title>2026-04-07: no usage</title></rect><rect x="395" y="95" width="10" height="10" rx="2" class="lv0"><title>2026-04-08: no usage</title></rect><rect x="395" y="108" width="10" height="10" rx="2" class="lv0"><title>2026-04-09: no usage</title></rect><rect x="395" y="121" width="10" height="10" rx="2" class="lv0"><title>2026-04-10: no usage</title></rect><rect x="395" y="134" width="10" height="10" rx="2" class="lv0"><title>2026-04-11: no usage</title></rect><rect x="408" y="56" width="10" height="10" rx="2" class="lv0"><title>2026-04-12: no usage</title></rect><rect x="408" y="69" width="10" height="10" rx="2" class="lv0"><title>2026-04-13: no usage</title></rect><rect x="408" y="82" width="10" height="10" rx="2" class="lv0"><title>2026-04-14: no usage</title></rect><rect x="408" y="95" width="10" height="10" rx="2" class="lv0"><title>2026-04-15: no usage</title></rect><rect x="408" y="108" width="10" height="10" rx="2" class="lv0"><title>2026-04-16: no usage</title></rect><rect x="408" y="121" width="10" height="10" rx="2" class="lv0"><title>2026-04-17: no usage</title></rect><rect x="408" y="134" width="10" height="10" rx="2" class="lv0"><title>2026-04-18: no usage</title></rect><rect x="421" y="56" width="10" height="10" rx="2" class="lv0"><title>2026-04-19: no usage</title></rect><rect x="421" y="69" width="10" height="10" rx="2" class="lv0"><title>2026-04-20: no usage</title></rect><rect x="421" y="82" width="10" height="10" rx="2" class="lv0"><title>2026-04-21: no usage</title></rect><rect x="421" y="95" width="10" height="10" rx="2" class="lv0"><title>2026-04-22: no usage</title></rect><rect x="421" y="108" width="10" height="10" rx="2" class="lv0"><title>2026-04-23: no usage</title></rect><rect x="421" y="121" width="10" height="10" rx="2" class="lv0"><title>2026-04-24: no usage</title></rect><rect x="421" y="134" width="10" height="10" rx="2" class="lv0"><title>2026-04-25: no usage</title></rect><rect x="434" y="56" width="10" height="10" rx="2" class="lv0"><title>2026-04-26: no usage</title></rect><rect x="434" y="69" width="10" height="10" rx="2" class="lv0"><title>2026-04-27: no usage</title></rect><rect x="434" y="82" width="10" height="10" rx="2" class="lv0"><title>2026-04-28: no usage</title></rect><rect x="434" y="95" width="10" height="10" rx="2" class="lv0"><title>2026-04-29: no usage</title></rect><rect x="434" y="108" width="10" height="10" rx="2" class="lv0"><title>2026-04-30: no usage</title></rect><rect x="434" y="121" width="10" height="10" rx="2" class="lv0"><title>2026-05-01: no usage</title></rect><rect x="434" y="134" width="10" height="10" rx="2" class="lv0"><title>2026-05-02: no usage</title></rect><rect x="447" y="56" width="10" height="10" rx="2" class="lv0"><title>2026-05-03: no usage</title></rect><rect x="447" y="69" width="10" height="10" rx="2" class="lv0"><title>2026-05-04: no usage</title></rect><rect x="447" y="82" width="10" height="10" rx="2" class="lv0"><title>2026-05-05: no usage</title></rect><rect x="447" y="95" width="10" height="10" rx="2" class="lv0"><title>2026-05-06: no usage</title></rect><rect x="447" y="108" width="10" height="10" rx="2" class="lv0"><title>2026-05-07: no usage</title></rect><rect x="447" y="121" width="10" height="10" rx="2" class="lv0"><title>2026-05-08: no usage</title></rect><rect x="447" y="134" width="10" height="10" rx="2" class="lv0"><title>2026-05-09: no usage</title></rect><rect x="460" y="56" width="10" height="10" rx="2" class="lv0"><title>2026-05-10: no usage</title></rect><rect x="460" y="69" width="10" height="10" rx="2" class="lv0"><title>2026-05-11: no usage</title></rect><rect x="460" y="82" width="10" height="10" rx="2" class="lv0"><title>2026-05-12: no usage</title></rect><rect x="460" y="95" width="10" height="10" rx="2" class="lv0"><title>2026-05-13: no usage</title></rect><rect x="460" y="108" width="10" height="10" rx="2" class="lv1"><title>2026-05-14: 7.8M tokens processed (fresh in+out 836.6K)</title></rect><rect x="460" y="121" width="10" height="10" rx="2" class="lv1"><title>2026-05-15: 7.2M tokens processed (fresh in+out 825.1K)</title></rect><rect x="460" y="134" width="10" height="10" rx="2" class="lv0"><title>2026-05-16: no usage</title></rect><rect x="473" y="56" width="10" height="10" rx="2" class="lv0"><title>2026-05-17: no usage</title></rect><rect x="473" y="69" width="10" height="10" rx="2" class="lv0"><title>2026-05-18: no usage</title></rect><rect x="473" y="82" width="10" height="10" rx="2" class="lv0"><title>2026-05-19: no usage</title></rect><rect x="473" y="95" width="10" height="10" rx="2" class="lv0"><title>2026-05-20: no usage</title></rect><rect x="473" y="108" width="10" height="10" rx="2" class="lv1"><title>2026-05-21: 73.6K tokens processed (fresh in+out 32.4K)</title></rect><rect x="473" y="121" width="10" height="10" rx="2" class="lv0"><title>2026-05-22: no usage</title></rect><rect x="473" y="134" width="10" height="10" rx="2" class="lv0"><title>2026-05-23: no usage</title></rect><rect x="486" y="56" width="10" height="10" rx="2" class="lv0"><title>2026-05-24: no usage</title></rect><rect x="486" y="69" width="10" height="10" rx="2" class="lv0"><title>2026-05-25: no usage</title></rect><rect x="486" y="82" width="10" height="10" rx="2" class="lv0"><title>2026-05-26: no usage</title></rect><rect x="486" y="95" width="10" height="10" rx="2" class="lv0"><title>2026-05-27: no usage</title></rect><rect x="486" y="108" width="10" height="10" rx="2" class="lv0"><title>2026-05-28: no usage</title></rect><rect x="486" y="121" width="10" height="10" rx="2" class="lv0"><title>2026-05-29: no usage</title></rect><rect x="486" y="134" width="10" height="10" rx="2" class="lv0"><title>2026-05-30: no usage</title></rect><rect x="499" y="56" width="10" height="10" rx="2" class="lv0"><title>2026-05-31: no usage</title></rect><rect x="499" y="69" width="10" height="10" rx="2" class="lv1"><title>2026-06-01: 121.4K tokens processed (fresh in+out 56.5K)</title></rect><rect x="499" y="82" width="10" height="10" rx="2" class="lv0"><title>2026-06-02: no usage</title></rect><rect x="499" y="95" width="10" height="10" rx="2" class="lv1"><title>2026-06-03: 4.4M tokens processed (fresh in+out 707.6K)</title></rect><rect x="499" y="108" width="10" height="10" rx="2" class="lv0"><title>2026-06-04: no usage</title></rect><rect x="499" y="121" width="10" height="10" rx="2" class="lv1"><title>2026-06-05: 6.3M tokens processed (fresh in+out 1.2M)</title></rect><rect x="499" y="134" width="10" height="10" rx="2" class="lv0"><title>2026-06-06: no usage</title></rect><rect x="512" y="56" width="10" height="10" rx="2" class="lv0"><title>2026-06-07: no usage</title></rect><rect x="512" y="69" width="10" height="10" rx="2" class="lv1"><title>2026-06-08: 2.4M tokens processed (fresh in+out 746K)</title></rect><rect x="512" y="82" width="10" height="10" rx="2" class="lv0"><title>2026-06-09: no usage</title></rect><rect x="512" y="95" width="10" height="10" rx="2" class="lv0"><title>2026-06-10: no usage</title></rect><rect x="512" y="108" width="10" height="10" rx="2" class="lv0"><title>2026-06-11: no usage</title></rect><rect x="512" y="121" width="10" height="10" rx="2" class="lv0"><title>2026-06-12: no usage</title></rect><rect x="512" y="134" width="10" height="10" rx="2" class="lv0"><title>2026-06-13: no usage</title></rect><rect x="525" y="56" width="10" height="10" rx="2" class="lv0"><title>2026-06-14: no usage</title></rect><rect x="525" y="69" width="10" height="10" rx="2" class="lv0"><title>2026-06-15: no usage</title></rect><rect x="525" y="82" width="10" height="10" rx="2" class="lv0"><title>2026-06-16: no usage</title></rect><rect x="525" y="95" width="10" height="10" rx="2" class="lv0"><title>2026-06-17: no usage</title></rect><rect x="525" y="108" width="10" height="10" rx="2" class="lv0"><title>2026-06-18: no usage</title></rect><rect x="525" y="121" width="10" height="10" rx="2" class="lv0"><title>2026-06-19: no usage</title></rect><rect x="525" y="134" width="10" height="10" rx="2" class="lv0"><title>2026-06-20: no usage</title></rect><rect x="538" y="56" width="10" height="10" rx="2" class="lv0"><title>2026-06-21: no usage</title></rect><rect x="538" y="69" width="10" height="10" rx="2" class="lv2"><title>2026-06-22: 22.1M tokens processed (fresh in+out 1.9M)</title></rect><rect x="538" y="82" width="10" height="10" rx="2" class="lv2"><title>2026-06-23: 38.2M tokens processed (fresh in+out 3.4M)</title></rect><rect x="538" y="95" width="10" height="10" rx="2" class="lv1"><title>2026-06-24: 13.4M tokens processed (fresh in+out 1.7M)</title></rect><rect x="538" y="108" width="10" height="10" rx="2" class="lv1"><title>2026-06-25: 9.7M tokens processed (fresh in+out 1.4M)</title></rect><rect x="538" y="121" width="10" height="10" rx="2" class="lv0"><title>2026-06-26: no usage</title></rect><rect x="538" y="134" width="10" height="10" rx="2" class="lv0"><title>2026-06-27: no usage</title></rect><rect x="551" y="56" width="10" height="10" rx="2" class="lv0"><title>2026-06-28: no usage</title></rect><rect x="551" y="69" width="10" height="10" rx="2" class="lv2"><title>2026-06-29: 22.4M tokens processed (fresh in+out 1.8M)</title></rect><rect x="551" y="82" width="10" height="10" rx="2" class="lv1"><title>2026-06-30: 10.1M tokens processed (fresh in+out 402.9K)</title></rect><rect x="551" y="95" width="10" height="10" rx="2" class="lv0"><title>2026-07-01: no usage</title></rect><rect x="551" y="108" width="10" height="10" rx="2" class="lv0"><title>2026-07-02: no usage</title></rect><rect x="551" y="121" width="10" height="10" rx="2" class="lv0"><title>2026-07-03: no usage</title></rect><rect x="551" y="134" width="10" height="10" rx="2" class="lv0"><title>2026-07-04: no usage</title></rect><rect x="564" y="56" width="10" height="10" rx="2" class="lv0"><title>2026-07-05: no usage</title></rect><rect x="564" y="69" width="10" height="10" rx="2" class="lv0"><title>2026-07-06: no usage</title></rect><rect x="564" y="82" width="10" height="10" rx="2" class="lv1"><title>2026-07-07: 6.7M tokens processed (fresh in+out 495.3K)</title></rect><rect x="564" y="95" width="10" height="10" rx="2" class="lv2"><title>2026-07-08: 46.3M tokens processed (fresh in+out 5.1M)</title></rect><rect x="564" y="108" width="10" height="10" rx="2" class="lv2"><title>2026-07-09: 21.8M tokens processed (fresh in+out 2.2M)</title></rect><rect x="564" y="121" width="10" height="10" rx="2" class="lv2"><title>2026-07-10: 60.3M tokens processed (fresh in+out 3.7M)</title></rect><rect x="564" y="134" width="10" height="10" rx="2" class="lv0"><title>2026-07-11: no usage</title></rect><rect x="577" y="56" width="10" height="10" rx="2" class="lv1"><title>2026-07-12: 99.4K tokens processed (fresh in+out 35.8K)</title></rect><rect x="577" y="69" width="10" height="10" rx="2" class="lv2"><title>2026-07-13: 34.3M tokens processed (fresh in+out 1.5M)</title></rect><rect x="577" y="82" width="10" height="10" rx="2" class="lv1"><title>2026-07-14: 13.9M tokens processed (fresh in+out 1.2M)</title></rect><rect x="577" y="95" width="10" height="10" rx="2" class="lv3"><title>2026-07-15: 157.6M tokens processed (fresh in+out 5.5M)</title></rect><rect x="577" y="108" width="10" height="10" rx="2" class="lv2"><title>2026-07-16: 60.4M tokens processed (fresh in+out 3.4M)</title></rect><rect x="577" y="121" width="10" height="10" rx="2" class="lv3"><title>2026-07-17: 67.3M tokens processed (fresh in+out 2.5M)</title></rect><rect x="577" y="134" width="10" height="10" rx="2" class="lv0"><title>2026-07-18: no usage</title></rect><rect x="590" y="56" width="10" height="10" rx="2" class="lv1"><title>2026-07-19: 536.1K tokens processed (fresh in+out 182.2K)</title></rect><rect x="590" y="69" width="10" height="10" rx="2" class="lv3"><title>2026-07-20: 69.3M tokens processed (fresh in+out 4.4M)</title></rect><rect x="590" y="82" width="10" height="10" rx="2" class="lv1"><title>2026-07-21: 2.9M tokens processed (fresh in+out 755.3K)</title></rect><rect x="590" y="95" width="10" height="10" rx="2" class="lv2"><title>2026-07-22: 45.4M tokens processed (fresh in+out 3M)</title></rect><rect x="590" y="108" width="10" height="10" rx="2" class="lv2"><title>2026-07-23: 62.9M tokens processed (fresh in+out 3.1M)</title></rect><rect x="590" y="121" width="10" height="10" rx="2" class="lv2"><title>2026-07-24: 43M tokens processed (fresh in+out 3.3M)</title></rect><rect x="590" y="134" width="10" height="10" rx="2" class="lv0"><title>2026-07-25: no usage</title></rect><rect x="603" y="56" width="10" height="10" rx="2" class="lv0"><title>2026-07-26: no usage</title></rect><rect x="603" y="69" width="10" height="10" rx="2" class="lv3"><title>2026-07-27: 89.8M tokens processed (fresh in+out 5.3M)</title></rect><rect x="603" y="82" width="10" height="10" rx="2" class="lv2"><title>2026-07-28: 49.4M tokens processed (fresh in+out 2.9M)</title></rect><rect x="603" y="95" width="10" height="10" rx="2" class="lv3"><title>2026-07-29: 118.5M tokens processed (fresh in+out 4.9M)</title></rect><rect x="603" y="108" width="10" height="10" rx="2" class="lv3"><title>2026-07-30: 150.9M tokens processed (fresh in+out 5.2M)</title></rect><rect x="603" y="121" width="10" height="10" rx="2" class="lv3"><title>2026-07-31: 68.3M tokens processed (fresh in+out 3.7M)</title></rect><rect x="603" y="134" width="10" height="10" rx="2" class="lv0"><title>2026-08-01: no usage</title></rect><rect x="616" y="56" width="10" height="10" rx="2" class="lv1"><title>2026-08-02: 19.5M tokens processed (fresh in+out 610.4K)</title></rect><rect x="616" y="69" width="10" height="10" rx="2" class="lv3"><title>2026-08-03: 134.1M tokens processed (fresh in+out 5.4M)</title></rect><rect x="616" y="82" width="10" height="10" rx="2" class="lv3"><title>2026-08-04: 68.5M tokens processed (fresh in+out 5.7M)</title></rect><rect x="616" y="95" width="10" height="10" rx="2" class="lv3"><title>2026-08-05: 127.3M tokens processed (fresh in+out 10.9M)</title></rect><rect x="616" y="108" width="10" height="10" rx="2" class="lv2"><title>2026-08-06: 29.6M tokens processed (fresh in+out 3.5M)</title></rect><rect x="616" y="121" width="10" height="10" rx="2" class="lv4"><title>2026-08-07: 220.8M tokens processed (fresh in+out 13.3M)</title></rect><rect x="616" y="134" width="10" height="10" rx="2" class="lv3"><title>2026-08-08: 92.1M tokens processed (fresh in+out 5.7M)</title></rect><rect x="629" y="56" width="10" height="10" rx="2" class="lv1"><title>2026-08-09: 5.4M tokens processed (fresh in+out 511K)</title></rect><rect x="629" y="69" width="10" height="10" rx="2" class="lv2"><title>2026-08-10: 25.4M tokens processed (fresh in+out 1M)</title></rect><rect x="629" y="82" width="10" height="10" rx="2" class="lv3"><title>2026-08-11: 110.3M tokens processed (fresh in+out 4.4M)</title></rect><rect x="629" y="95" width="10" height="10" rx="2" class="lv1"><title>2026-08-12: 12.1M tokens processed (fresh in+out 1.2M)</title></rect><rect x="629" y="108" width="10" height="10" rx="2" class="lv1"><title>2026-08-13: 19.2M tokens processed (fresh in+out 1.3M)</title></rect><rect x="629" y="121" width="10" height="10" rx="2" class="lv2"><title>2026-08-14: 34M tokens processed (fresh in+out 1.9M)</title></rect><rect x="629" y="134" width="10" height="10" rx="2" class="lv2"><title>2026-08-15: 26M tokens processed (fresh in+out 756.7K)</title></rect><rect x="642" y="56" width="10" height="10" rx="2" class="lv3"><title>2026-08-16: 82.4M tokens processed (fresh in+out 3.1M)</title></rect><rect x="642" y="69" width="10" height="10" rx="2" class="lv4"><title>2026-08-17: 328.5M tokens processed (fresh in+out 18.6M)</title></rect><rect x="642" y="82" width="10" height="10" rx="2" class="lv4"><title>2026-08-18: 413.7M tokens processed (fresh in+out 23.6M)</title></rect><rect x="642" y="95" width="10" height="10" rx="2" class="lv4"><title>2026-08-19: 1.8B tokens processed (fresh in+out 66.1M)</title></rect><rect x="642" y="108" width="10" height="10" rx="2" class="lv4"><title>2026-08-20: 482.8M tokens processed (fresh in+out 19.4M)</title></rect><rect x="642" y="121" width="10" height="10" rx="2" class="lv4"><title>2026-08-21: 1.9B tokens processed (fresh in+out 53.6M)</title></rect><rect x="642" y="134" width="10" height="10" rx="2" class="lv4"><title>2026-08-22: 331.2M tokens processed (fresh in+out 12.4M)</title></rect><rect x="655" y="56" width="10" height="10" rx="2" class="lv4"><title>2026-08-23: 905.9M tokens processed (fresh in+out 29.7M)</title></rect><rect x="655" y="69" width="10" height="10" rx="2" class="lv4"><title>2026-08-24: 235.6M tokens processed (fresh in+out 13.1M)</title></rect><rect x="655" y="82" width="10" height="10" rx="2" class="lv3"><title>2026-08-25: 143.7M tokens processed (fresh in+out 6.3M)</title></rect><rect x="655" y="95" width="10" height="10" rx="2" class="lv4"><title>2026-08-26: 171.1M tokens processed (fresh in+out 8.7M)</title></rect><rect x="655" y="108" width="10" height="10" rx="2" class="lv3"><title>2026-08-27: 89.3M tokens processed (fresh in+out 6.1M)</title></rect><rect x="655" y="121" width="10" height="10" rx="2" class="lv4"><title>2026-08-28: 469.6M tokens processed (fresh in+out 16.9M)</title></rect><rect x="655" y="134" width="10" height="10" rx="2" class="lv4"><title>2026-08-29: 322.5M tokens processed (fresh in+out 12.2M)</title></rect><rect x="668" y="56" width="10" height="10" rx="2" class="lv4"><title>2026-08-30: 1B tokens processed (fresh in+out 32.2M)</title></rect><rect x="668" y="69" width="10" height="10" rx="2" class="lv4"><title>2026-08-31: 593.3M tokens processed (fresh in+out 21.8M)</title></rect><rect x="668" y="82" width="10" height="10" rx="2" class="lv3"><title>2026-09-01: 77.9M tokens processed (fresh in+out 4M)</title></rect><rect x="668" y="95" width="10" height="10" rx="2" class="lv4"><title>2026-09-02: 230.8M tokens processed (fresh in+out 10.1M)</title></rect><rect x="668" y="108" width="10" height="10" rx="2" class="lv4"><title>2026-09-03: 263.7M tokens processed (fresh in+out 9.6M)</title></rect><rect x="668" y="121" width="10" height="10" rx="2" class="lv3"><title>2026-09-04: 134.7M tokens processed (fresh in+out 1.8M)</title></rect><rect x="668" y="134" width="10" height="10" rx="2" class="lv0"><title>2026-09-05: no usage</title></rect><rect x="681" y="56" width="10" height="10" rx="2" class="lv2"><title>2026-09-06: 51.3M tokens processed (fresh in+out 2.1M)</title></rect><rect x="681" y="69" width="10" height="10" rx="2" class="lv4"><title>2026-09-07: 483.6M tokens processed (fresh in+out 13.6M)</title></rect><rect x="681" y="82" width="10" height="10" rx="2" class="lv4"><title>2026-09-08: 190.1M tokens processed (fresh in+out 6.1M)</title></rect><rect x="681" y="95" width="10" height="10" rx="2" class="lv2"><title>2026-09-09: 30.3M tokens processed (fresh in+out 981.9K)</title></rect><rect x="681" y="108" width="10" height="10" rx="2" class="lv0"><title>2026-09-10: no usage</title></rect><rect x="681" y="121" width="10" height="10" rx="2" class="lv1"><title>2026-09-11: 11.6M tokens processed (fresh in+out 564.5K)</title></rect><rect x="681" y="134" width="10" height="10" rx="2" class="lv2"><title>2026-09-12: 60.9M tokens processed (fresh in+out 2.5M)</title></rect><rect x="694" y="56" width="10" height="10" rx="2" class="lv1"><title>2026-09-13: 5.5M tokens processed (fresh in+out 703.6K)</title></rect><rect x="694" y="69" width="10" height="10" rx="2" class="lv2"><title>2026-09-14: 20M tokens processed (fresh in+out 1.9M)</title></rect><rect x="694" y="82" width="10" height="10" rx="2" class="lv1"><title>2026-09-15: 17.4M tokens processed (fresh in+out 862.8K)</title></rect><rect x="694" y="95" width="10" height="10" rx="2" class="lv3"><title>2026-09-16: 149.1M tokens processed (fresh in+out 4.7M)</title></rect><rect x="694" y="108" width="10" height="10" rx="2" class="lv3"><title>2026-09-17: 77.8M tokens processed (fresh in+out 2.6M)</title></rect><rect x="694" y="121" width="10" height="10" rx="2" class="lv1"><title>2026-09-18: 2.7M tokens processed (fresh in+out 348.4K)</title></rect><rect x="694" y="134" width="10" height="10" rx="2" class="lv1"><title>2026-09-19: 15.6M tokens processed (fresh in+out 1M)</title></rect><rect x="707" y="56" width="10" height="10" rx="2" class="lv3"><title>2026-09-20: 89.4M tokens processed (fresh in+out 3.4M)</title></rect><rect x="707" y="69" width="10" height="10" rx="2" class="lv2"><title>2026-09-21: 63.7M tokens processed (fresh in+out 2.6M)</title></rect><rect x="707" y="82" width="10" height="10" rx="2" class="lv4"><title>2026-09-22: 204.3M tokens processed (fresh in+out 7M)</title></rect><rect x="707" y="95" width="10" height="10" rx="2" class="lv1"><title>2026-09-23: 16.5M tokens processed (fresh in+out 2.1M)</title></rect><rect x="707" y="108" width="10" height="10" rx="2" class="lv2"><title>2026-09-24: 40.8M tokens processed (fresh in+out 2.6M)</title></rect><rect x="707" y="121" width="10" height="10" rx="2" class="lv3"><title>2026-09-25: 65.8M tokens processed (fresh in+out 3.5M)</title></rect><rect x="707" y="134" width="10" height="10" rx="2" class="lv4"><title>2026-09-26: 233.9M tokens processed (fresh in+out 9.6M)</title></rect><rect x="720" y="56" width="10" height="10" rx="2" class="lv4"><title>2026-09-27: 159.4M tokens processed (fresh in+out 7.4M)</title></rect><rect x="720" y="69" width="10" height="10" rx="2" class="lv3"><title>2026-09-28: 81M tokens processed (fresh in+out 3.9M)</title></rect><rect x="720" y="82" width="10" height="10" rx="2" class="lv2"><title>2026-09-29: 58.7M tokens processed (fresh in+out 3.2M)</title></rect><rect x="720" y="95" width="10" height="10" rx="2" class="lv4"><title>2026-09-30: 197.1M tokens processed (fresh in+out 10.3M)</title></rect><rect x="720" y="108" width="10" height="10" rx="2" class="lv2"><title>2026-10-01: 42.9M tokens processed (fresh in+out 3.5M)</title></rect><rect x="720" y="121" width="10" height="10" rx="2" class="lv4"><title>2026-10-02: 233.4M tokens processed (fresh in+out 11.4M)</title></rect><rect x="720" y="134" width="10" height="10" rx="2" class="lv4"><title>2026-10-03: 389M tokens processed (fresh in+out 12.5M)</title></rect>
<circle cx="92" cy="233" r="52" fill="none" class="track" stroke-width="20"/><circle cx="92" cy="233" r="52" fill="none" stroke="#40c463" stroke-width="20" stroke-dasharray="283.21 43.51" stroke-dashoffset="-0.00" transform="rotate(-90 92 233)"><title>gpt-6.1-sol: 13.5B (87.1%)</title></circle><circle cx="92" cy="233" r="52" fill="none" stroke="#58a6ff" stroke-width="20" stroke-dasharray="17.33 309.40" stroke-dashoffset="-284.71" transform="rotate(-90 92 233)"><title>gpt-6-astra: 894.7M (5.8%)</title></circle><circle cx="92" cy="233" r="52" fill="none" stroke="#f778ba" stroke-width="20" stroke-dasharray="9.02 317.70" stroke-dashoffset="-303.54" transform="rotate(-90 92 233)"><title>grok-4.7-xhigh-fast: 500M (3.2%)</title></circle><circle cx="92" cy="233" r="52" fill="none" stroke="#e3b341" stroke-width="20" stroke-dasharray="8.01 318.72" stroke-dashoffset="-314.07" transform="rotate(-90 92 233)"><title>grok-4.7-xhigh: 451.9M (2.9%)</title></circle><circle cx="92" cy="233" r="52" fill="none" stroke="#a371f7" stroke-width="20" stroke-dasharray="1.65 325.08" stroke-dashoffset="-323.58" transform="rotate(-90 92 233)"><title>Other: 149.6M (1.0%)</title></circle><text x="92" y="231" text-anchor="middle" class="strong mid">15.5B</text><text x="92" y="247" text-anchor="middle" class="muted small">all time</text>
<rect x="186" y="168" width="10" height="10" rx="2" fill="#40c463"/><text x="202" y="177" class="text small">gpt-6.1-sol · 87.1%</text><rect x="186" y="186" width="10" height="10" rx="2" fill="#58a6ff"/><text x="202" y="195" class="text small">gpt-6-astra · 5.8%</text><rect x="186" y="204" width="10" height="10" rx="2" fill="#f778ba"/><text x="202" y="213" class="text small">grok-4.7-xhigh-fast · 3.2%</text><rect x="186" y="222" width="10" height="10" rx="2" fill="#e3b341"/><text x="202" y="231" class="text small">grok-4.7-xhigh · 2.9%</text><rect x="186" y="240" width="10" height="10" rx="2" fill="#a371f7"/><text x="202" y="249" class="text small">Other · 1.0%</text>
<text x="506" y="177" class="text small">Today</text><text x="696" y="177" text-anchor="end" class="strong small">50.8M tokens</text><text x="506" y="199" class="text small">Yesterday</text><text x="696" y="199" text-anchor="end" class="strong small">65M tokens</text><text x="506" y="221" class="text small">Last 7 days</text><text x="696" y="221" text-anchor="end" class="strong small">933.6M tokens</text><text x="506" y="243" class="text small">Last 30 days</text><text x="696" y="243" text-anchor="end" class="strong small">2.7B tokens</text><text x="506" y="265" class="text small">All time</text><text x="696" y="265" text-anchor="end" class="strong small">15.5B tokens</text><text x="506" y="287" class="text small">Cache read (all)</text><text x="696" y="287" text-anchor="end" class="strong small">14.9B tokens</text><text x="506" y="309" class="muted small">total tokens processed · cache reads included</text>
</svg>
